<mxfile host="app.diagrams.net" agent="Mozilla/5.0 (Macintosh; Intel Mac OS X 10_15_7) AppleWebKit/537.36 (KHTML, like Gecko) Chrome/133.0.0.0 Safari/537.36" version="26.0.16">
  <diagram name="Page-1" id="6UAv0hcpv4R2xLbHXew6">
    <mxGraphModel dx="2284" dy="1810" grid="1" gridSize="10" guides="1" tooltips="1" connect="1" arrows="1" fold="1" page="1" pageScale="1" pageWidth="850" pageHeight="1100" math="0" shadow="0">
      <root>
        <mxCell id="0" />
        <mxCell id="1" parent="0" />
        <mxCell id="Svoit7e366wY4mwQaXgK-8" style="edgeStyle=orthogonalEdgeStyle;rounded=0;orthogonalLoop=1;jettySize=auto;html=1;exitX=1;exitY=0.5;exitDx=0;exitDy=0;entryX=0;entryY=0.5;entryDx=0;entryDy=0;" edge="1" parent="1" source="Svoit7e366wY4mwQaXgK-1" target="Svoit7e366wY4mwQaXgK-7">
          <mxGeometry relative="1" as="geometry" />
        </mxCell>
        <mxCell id="Svoit7e366wY4mwQaXgK-1" value="Customer Send Email to ff" style="whiteSpace=wrap;html=1;aspect=fixed;" vertex="1" parent="1">
          <mxGeometry x="-90" y="10" width="140" height="140" as="geometry" />
        </mxCell>
        <mxCell id="Svoit7e366wY4mwQaXgK-13" value="" style="edgeStyle=orthogonalEdgeStyle;rounded=0;orthogonalLoop=1;jettySize=auto;html=1;" edge="1" parent="1" source="Svoit7e366wY4mwQaXgK-3" target="Svoit7e366wY4mwQaXgK-12">
          <mxGeometry relative="1" as="geometry" />
        </mxCell>
        <mxCell id="Svoit7e366wY4mwQaXgK-3" value="Email Pending job trigger" style="whiteSpace=wrap;html=1;aspect=fixed;" vertex="1" parent="1">
          <mxGeometry x="520" y="-110" width="140" height="140" as="geometry" />
        </mxCell>
        <mxCell id="Svoit7e366wY4mwQaXgK-11" style="edgeStyle=orthogonalEdgeStyle;rounded=0;orthogonalLoop=1;jettySize=auto;html=1;exitX=1;exitY=0.75;exitDx=0;exitDy=0;entryX=0;entryY=0.5;entryDx=0;entryDy=0;" edge="1" parent="1" source="Svoit7e366wY4mwQaXgK-7" target="Svoit7e366wY4mwQaXgK-10">
          <mxGeometry relative="1" as="geometry">
            <Array as="points">
              <mxPoint x="260" y="70" />
            </Array>
          </mxGeometry>
        </mxCell>
        <mxCell id="Svoit7e366wY4mwQaXgK-7" value="Recognition of quote/cutomer/ff params correctly&lt;div&gt;and update quote correctly&lt;/div&gt;" style="whiteSpace=wrap;html=1;aspect=fixed;" vertex="1" parent="1">
          <mxGeometry x="120" y="10" width="140" height="140" as="geometry" />
        </mxCell>
        <mxCell id="Svoit7e366wY4mwQaXgK-14" style="edgeStyle=orthogonalEdgeStyle;rounded=0;orthogonalLoop=1;jettySize=auto;html=1;exitX=1;exitY=0.5;exitDx=0;exitDy=0;" edge="1" parent="1" source="Svoit7e366wY4mwQaXgK-10" target="Svoit7e366wY4mwQaXgK-3">
          <mxGeometry relative="1" as="geometry">
            <Array as="points">
              <mxPoint x="410" y="70" />
              <mxPoint x="410" y="-40" />
            </Array>
          </mxGeometry>
        </mxCell>
        <mxCell id="Svoit7e366wY4mwQaXgK-17" style="edgeStyle=orthogonalEdgeStyle;rounded=0;orthogonalLoop=1;jettySize=auto;html=1;exitX=1;exitY=0.5;exitDx=0;exitDy=0;" edge="1" parent="1" source="Svoit7e366wY4mwQaXgK-10" target="Svoit7e366wY4mwQaXgK-16">
          <mxGeometry relative="1" as="geometry" />
        </mxCell>
        <mxCell id="Svoit7e366wY4mwQaXgK-10" value="Draft Quote" style="whiteSpace=wrap;html=1;aspect=fixed;" vertex="1" parent="1">
          <mxGeometry x="310" width="140" height="140" as="geometry" />
        </mxCell>
        <mxCell id="Svoit7e366wY4mwQaXgK-12" value="Sent Pending Email according to quote" style="whiteSpace=wrap;html=1;" vertex="1" parent="1">
          <mxGeometry x="720" y="-140" width="120" height="110" as="geometry" />
        </mxCell>
        <mxCell id="Svoit7e366wY4mwQaXgK-16" value="Generate Quote and send email" style="whiteSpace=wrap;html=1;aspect=fixed;" vertex="1" parent="1">
          <mxGeometry x="520" y="60" width="140" height="140" as="geometry" />
        </mxCell>
      </root>
    </mxGraphModel>
  </diagram>
</mxfile>
